<svg width="228" height="130" viewBox="0 0 228 130" fill="none" xmlns="http://www.w3.org/2000/svg">
<g clip-path="url(#clip0_95_2188)">
<path d="M227.543 129.082H0C2.49331 122.724 7.09762 117.33 13.5884 115.729C23.0833 113.392 33.1316 119.819 42.6061 117.403C47.9884 116.031 52.2259 112.034 56.6785 108.715C73.4767 96.1904 96.4967 92.4888 116.374 99.1178C126.764 102.581 136.232 108.638 146.876 111.214C160.639 114.544 175.033 111.782 189.186 111.327C202.969 110.883 222.72 116.5 227.543 129.082Z" fill="#F3F5FD"/>
<path d="M199.361 97.079C198.264 100.403 194.478 103.357 195.608 105.801C196.039 106.73 196.471 107.702 196.669 108.695C196.798 109.287 196.82 109.897 196.733 110.496C196.325 113.085 193.903 114.804 191.65 116.143C191.511 116.225 191.371 116.309 191.23 116.393C189.096 117.672 186.861 119.145 186.175 121.505C185.795 122.816 185.962 124.218 185.805 125.575C185.655 126.821 185.232 128.019 184.565 129.082H170.181C168.904 127.675 169.01 125.309 169.982 123.65C171.022 121.874 172.78 120.667 174.366 119.354C175.735 118.219 177.071 116.853 177.594 115.186C177.677 114.923 177.738 114.653 177.777 114.379C177.904 113.477 177.835 108.871 179.399 106.036C181.816 101.658 185.736 102.736 186.934 100.266C187.394 99.3195 187.79 87.6918 195.427 89.8398C196.171 90.039 196.868 90.3876 197.473 90.8646C198.079 91.3415 198.581 91.9368 198.949 92.6141C199.317 93.2914 199.544 94.0365 199.615 94.8041C199.686 95.5717 199.599 96.3457 199.361 97.079Z" fill="#DEE8F5"/>
<path d="M213.331 115.26C213.111 115.411 212.876 115.536 212.628 115.634C210.568 116.407 204.837 116.321 203.998 118.356C203.604 119.313 203.51 120.369 203.172 121.347C202.406 123.567 200.383 125.232 198.12 125.858C197.306 126.082 196.463 126.187 195.657 126.437C194.101 126.922 192.811 127.897 191.678 129.082H173.101C173.093 127.85 173.396 126.636 173.982 125.552C174.568 124.469 175.419 123.551 176.454 122.883C178.52 121.58 181.129 121.337 183.157 119.976C184.494 119.078 185.456 117.78 186.219 116.345C186.704 115.407 187.132 114.44 187.502 113.45C188.07 111.977 188.663 110.397 189.952 109.486C190.566 109.052 191.292 108.808 192.021 108.618C193.883 108.131 195.314 108.418 196.67 108.695C198.315 109.031 199.851 109.352 201.914 108.257C205.572 106.313 210.92 96.6187 216.265 105.829C218.408 109.523 215.451 113.841 213.331 115.26Z" fill="#8DDBE0"/>
<path d="M28.7599 97.0789C29.8571 100.403 33.6439 103.357 32.5131 105.801C32.0828 106.73 31.6508 107.702 31.452 108.695C31.3229 109.287 31.3015 109.897 31.3886 110.496C31.7966 113.085 34.2189 114.804 36.4712 116.143C36.6101 116.225 36.7507 116.309 36.8912 116.393C39.0255 117.672 41.2608 119.145 41.9466 121.505C42.3271 122.816 42.1591 124.218 42.3168 125.575C42.4663 126.821 42.8895 128.019 43.5562 129.082H57.9404C59.2174 127.675 59.1112 125.309 58.1391 123.65C57.0993 121.874 55.3415 120.667 53.7559 119.354C52.3861 118.219 51.0507 116.853 50.5279 115.186C50.4449 114.923 50.3836 114.653 50.3446 114.379C50.2177 113.477 50.2863 108.871 48.723 106.036C46.3047 101.658 42.3848 102.736 41.1868 100.266C40.7274 99.3194 40.3314 87.6918 32.6946 89.8398C31.9499 90.039 31.2535 90.3876 30.6479 90.8646C30.0423 91.3416 29.5402 91.9368 29.1721 92.6141C28.8039 93.2914 28.5776 94.0365 28.5067 94.8041C28.4359 95.5717 28.522 96.3457 28.7599 97.0789Z" fill="#DEE8F5"/>
<path d="M14.7907 115.26C15.01 115.411 15.2458 115.536 15.4936 115.634C17.554 116.407 23.2848 116.321 24.123 118.356C24.5173 119.313 24.6115 120.369 24.9493 121.347C25.7155 123.567 27.7383 125.232 30.0011 125.858C30.8154 126.082 31.6583 126.187 32.4645 126.437C34.021 126.922 35.31 127.897 36.4431 129.082H55.0203C55.0285 127.85 54.7255 126.636 54.1393 125.552C53.5532 124.469 52.7029 123.551 51.6673 122.883C49.6016 121.58 46.9925 121.337 44.9647 119.976C43.6275 119.078 42.6658 117.78 41.903 116.345C41.4178 115.407 40.9892 114.44 40.6195 113.45C40.0521 111.977 39.4589 110.397 38.1699 109.486C37.5562 109.052 36.8293 108.808 36.1008 108.618C34.2392 108.131 32.8078 108.418 31.4518 108.695C29.8056 109.031 28.2703 109.351 26.2068 108.256C22.5486 106.312 17.2002 96.6177 11.8553 105.828C9.7131 109.523 12.6703 113.841 14.7907 115.26Z" fill="#8DDBE0"/>
<path d="M174.997 26.4657C173.747 26.0601 172.401 26.0601 171.151 26.4657C170.432 26.7054 169.791 27.1327 169.292 27.7034C168.657 28.4565 168.188 29.4992 168.234 30.4979C168.267 31.0146 168.431 31.5145 168.709 31.9508C168.988 32.3871 169.373 32.7455 169.828 32.9924C170.635 33.4057 171.848 33.4915 172.554 32.8299C173.092 32.3262 173.064 31.4611 172.717 30.8607C172.162 29.9013 170.951 29.5112 169.899 29.6448C169.299 29.7308 168.723 29.9365 168.204 30.2497C167.685 30.5628 167.235 30.977 166.879 31.4677C166.544 31.932 166.301 32.4566 166.163 33.0127C166.035 33.5289 165.983 34.1209 166.186 34.6255C166.223 34.7446 166.303 34.8452 166.412 34.9067C166.52 34.9682 166.648 34.986 166.769 34.9565C166.994 34.8946 167.196 34.6125 167.1 34.3737C167.041 34.2393 167.008 34.0951 167.002 33.9485C166.994 33.7676 167.008 33.5863 167.044 33.409C167.129 32.9991 167.282 32.6066 167.498 32.2481C167.934 31.5338 168.609 30.9966 169.403 30.7314C170.162 30.4775 171.059 30.4799 171.668 31.0554C171.782 31.1575 171.875 31.2805 171.942 31.4177C171.95 31.4331 171.978 31.5025 171.945 31.4208C171.96 31.4578 171.973 31.4957 171.984 31.5345C171.991 31.5586 171.998 31.5832 172.003 31.6073C172.011 31.6398 172.023 31.7919 172.015 31.6533C172.017 31.6911 172.05 31.9145 172.015 31.936C172.004 31.9423 172.043 31.8013 172.021 31.8841C172.017 31.8986 172.017 31.9139 172.013 31.928C172.004 31.9683 171.993 32.0079 171.979 32.0468C171.918 32.1455 171.827 32.2216 171.719 32.2637C171.788 32.2312 171.647 32.2885 171.648 32.2882C171.619 32.2972 171.589 32.3045 171.559 32.3116C171.473 32.3344 171.384 32.3481 171.294 32.3526C171.14 32.3634 170.985 32.3593 170.831 32.3404C170.667 32.3111 170.507 32.2632 170.353 32.1974C170.018 32.0341 169.732 31.7839 169.525 31.4728C169.319 31.1616 169.2 30.8009 169.18 30.4281C169.19 30.0041 169.285 29.5864 169.461 29.2006C169.531 29.044 169.611 28.8921 169.7 28.7457C169.778 28.6149 169.866 28.4903 169.963 28.3728C170.062 28.2561 170.167 28.1459 170.28 28.0426C170.334 27.9924 170.391 27.9439 170.448 27.8972C170.561 27.8059 170.376 27.9481 170.492 27.8638C170.528 27.8381 170.563 27.8129 170.599 27.7884C170.725 27.7036 170.855 27.6265 170.989 27.5573C171.059 27.5214 171.13 27.4878 171.201 27.4558C171.216 27.449 171.285 27.4213 171.205 27.4537C171.251 27.4352 171.297 27.4173 171.343 27.4002C171.652 27.2898 171.972 27.2097 172.297 27.1612C172.433 27.1396 172.198 27.1702 172.335 27.1565C172.376 27.1525 172.416 27.1474 172.457 27.1435C172.538 27.1359 172.62 27.1299 172.701 27.1256C172.861 27.1172 173.021 27.1151 173.181 27.1195C173.336 27.1234 173.49 27.1329 173.644 27.1481C173.678 27.1515 173.907 27.1806 173.776 27.1617C173.848 27.1719 173.919 27.1827 173.99 27.195C174.245 27.2386 174.497 27.2999 174.744 27.3783C175.327 27.5643 175.576 26.6498 174.996 26.4645L174.997 26.4657Z" fill="#32B768"/>
<path d="M84.5112 9.08563C85.72 8.65118 86.9808 9.52967 87.5495 10.6054C88.1092 11.6657 87.9787 13.1803 86.8833 13.8586C86.4178 14.1468 85.766 14.2435 85.36 13.8735C84.9366 13.4877 84.9624 13.0069 85.3809 12.621C85.4789 12.5332 85.5857 12.4557 85.6995 12.3897C85.7658 12.3497 85.8336 12.3119 85.9028 12.2771C85.9282 12.2644 85.9538 12.2522 85.9795 12.2402C86.0497 12.2077 85.8773 12.2771 86.0047 12.2296C86.1071 12.191 86.2117 12.1584 86.3179 12.1322C86.3683 12.12 86.4191 12.1092 86.4703 12.0997C86.4999 12.0941 86.5295 12.0893 86.559 12.0846C86.4616 12.1 86.6061 12.0802 86.6135 12.0795C86.8542 12.0574 87.0966 12.0614 87.3365 12.0915C87.4167 12.1016 87.2725 12.0811 87.3527 12.0945C87.3842 12.0998 87.4159 12.105 87.4473 12.1107C87.5025 12.1209 87.5575 12.1324 87.6123 12.1453C87.7462 12.1767 87.8782 12.2154 88.0078 12.2612C88.0447 12.2742 88.1561 12.3169 88.1555 12.3166C88.116 12.3003 88.1893 12.3318 88.188 12.3314C88.2176 12.3448 88.2471 12.3586 88.2764 12.3729C88.4008 12.4333 88.5216 12.501 88.638 12.5755C88.8376 12.7016 89.0182 12.8556 89.1742 13.0327C89.3276 13.2049 89.4547 13.3987 89.5515 13.6079C89.5706 13.6464 89.5869 13.6864 89.6002 13.7273C89.6291 13.8073 89.6546 13.8887 89.678 13.971C89.7298 14.1475 89.7687 14.3276 89.7942 14.5098C89.877 15.1797 89.7702 15.8595 89.4859 16.4717C89.2015 17.084 88.751 17.6041 88.1857 17.9731C87.9602 18.1141 87.7043 18.1993 87.4393 18.2217C87.1742 18.2441 86.9077 18.2029 86.6617 18.1017C86.5936 18.0689 86.5281 18.0308 86.4658 17.988C86.391 17.938 86.5009 18.0231 86.4578 17.983C86.4466 17.9726 86.4351 17.9625 86.4243 17.9514C86.4102 17.9367 86.3975 17.9212 86.384 17.9063C86.5075 18.0428 86.3983 17.9316 86.406 17.9282C86.3953 17.9111 86.3856 17.8935 86.3771 17.8752C86.4036 17.9164 86.3977 17.9575 86.3853 17.8889C86.3823 17.8726 86.3556 17.7347 86.3642 17.8124C86.3722 17.8853 86.366 17.7662 86.3655 17.7427C86.365 17.7191 86.3688 17.6965 86.3694 17.6733C86.3694 17.6913 86.3455 17.7761 86.3675 17.6921C86.3821 17.6364 86.3927 17.5807 86.4105 17.5256C86.4196 17.4978 86.468 17.3872 86.4305 17.4671C86.4554 17.414 86.4825 17.3622 86.5118 17.3115C86.5431 17.2575 86.5767 17.2054 86.6135 17.1545C86.6172 17.1492 86.6663 17.0856 86.6297 17.1326C86.651 17.1058 86.6734 17.0798 86.696 17.0543C86.8922 16.8341 87.1214 16.6457 87.3755 16.496C87.4536 16.4489 87.5331 16.4036 87.6145 16.3625C87.6419 16.3485 87.7695 16.2942 87.6655 16.3352C87.7652 16.2958 87.8672 16.2622 87.9709 16.2348C88.1806 16.172 88.3987 16.1422 88.6176 16.1465C88.7412 16.1446 88.8649 16.1492 88.988 16.1603C89.0296 16.1612 89.071 16.1667 89.1115 16.1766C89.1864 16.1904 89.261 16.2058 89.3349 16.2253C89.5814 16.2816 89.8137 16.388 90.0173 16.5379C90.3925 16.8415 90.6568 17.2608 90.7689 17.7303C90.896 18.2196 90.9076 18.7317 90.8028 19.2262C90.705 19.7153 90.4907 20.1736 90.1781 20.5622C90.0196 20.7547 89.8331 20.9222 89.6247 21.0592C89.1159 21.3912 89.5903 22.2128 90.1031 21.8776C91.2771 21.1115 91.9065 19.6748 91.8139 18.29C91.7805 17.5876 91.5442 16.9098 91.1336 16.3389C90.6905 15.7553 90.0381 15.3666 89.3139 15.2547C87.9475 15.0307 86.4869 15.5751 85.7303 16.7745C85.4308 17.2489 85.2823 17.8977 85.5883 18.4067C85.9766 19.0525 86.9144 19.2353 87.605 19.1502C88.4546 19.046 89.154 18.5328 89.6863 17.8811C90.2774 17.1857 90.648 16.3301 90.7512 15.4234C90.8439 14.5796 90.6833 13.7272 90.2897 12.9751C89.9587 12.4001 89.4715 11.9308 88.8847 11.6215C87.7617 11.0179 86.3088 10.9018 85.1947 11.5864C84.4659 12.0344 83.895 12.8243 84.1684 13.7132C84.298 14.1132 84.5533 14.4607 84.8962 14.704C85.2392 14.9472 85.6516 15.0733 86.0719 15.0633C87.8754 15.0328 89.0116 13.1462 88.8015 11.4889C88.583 9.76997 87.1768 8.23005 85.426 8.03541C85.0318 7.99171 84.6328 8.03798 84.2591 8.17075C84.1396 8.2069 84.0387 8.28758 83.9771 8.39608C83.9155 8.50459 83.898 8.63262 83.9281 8.7537C83.9625 8.87428 84.0428 8.97654 84.1519 9.03844C84.2609 9.10034 84.3899 9.11694 84.5111 9.08466L84.5112 9.08563Z" fill="#32B768"/>
<path d="M137.162 21.7575C138.543 21.6278 139.841 21.0415 140.85 20.0914C141.431 19.5255 141.835 18.804 142.015 18.0137C142.239 17.0369 142.15 15.8776 141.591 15.0274C141.33 14.6479 140.986 14.3324 140.586 14.1045C140.185 13.8767 139.738 13.7422 139.279 13.7114C138.4 13.6742 137.278 14.0635 136.902 14.9288C136.6 15.6209 136.973 16.4422 137.57 16.8448C138.517 17.4835 139.752 17.3362 140.689 16.7607C141.199 16.4322 141.637 16.0042 141.977 15.5024C142.317 15.0006 142.553 14.4353 142.669 13.8404C142.874 12.7879 142.75 11.4821 141.954 10.694C141.772 10.5136 141.434 10.5877 141.288 10.7723C141.213 10.8721 141.179 10.997 141.194 11.121C141.208 11.2451 141.27 11.3587 141.366 11.4384C141.295 11.3681 141.4 11.4808 141.404 11.4871C141.425 11.5127 141.444 11.539 141.462 11.5656C141.498 11.6137 141.528 11.6655 141.552 11.7201C141.63 11.8865 141.689 12.0609 141.728 12.24C141.805 12.6208 141.822 13.0115 141.778 13.3975C141.676 14.2399 141.277 15.0185 140.653 15.5933C140.064 16.1295 139.259 16.4924 138.469 16.2422C138.31 16.1978 138.162 16.119 138.036 16.0114C138.012 15.9912 137.988 15.9703 137.966 15.9485C138.039 16.0182 137.942 15.9205 137.934 15.9105C137.917 15.8888 137.9 15.8671 137.885 15.8455C137.868 15.8227 137.786 15.6765 137.847 15.7967C137.806 15.7155 137.788 15.6114 137.743 15.5347C137.746 15.5391 137.757 15.6456 137.748 15.5485C137.739 15.4995 137.738 15.4496 137.742 15.4001C137.765 15.2434 137.734 15.4156 137.761 15.3316C137.765 15.3202 137.813 15.2203 137.784 15.2708C137.808 15.2342 137.834 15.199 137.861 15.1655C137.872 15.1507 137.947 15.0716 137.891 15.1262C138.007 15.0201 138.137 14.9313 138.279 14.8627C138.563 14.7097 138.884 14.6367 139.207 14.6515C139.14 14.649 139.243 14.6559 139.259 14.6576C139.3 14.6624 139.341 14.6659 139.382 14.6719C139.464 14.6835 139.546 14.6997 139.627 14.7207C139.571 14.7059 139.651 14.7283 139.656 14.7298C139.705 14.746 139.754 14.7623 139.8 14.7819C139.889 14.8177 139.976 14.858 140.06 14.9026C140.366 15.0686 140.628 15.3037 140.826 15.5893C141.253 16.2391 141.243 17.1508 141.078 17.871C141.058 17.9583 141.045 18.001 141.032 18.0457C141.007 18.1237 140.979 18.2007 140.949 18.2767C140.891 18.4245 140.822 18.5684 140.745 18.7074C140.671 18.841 140.794 18.6343 140.713 18.7628C140.696 18.7891 140.679 18.815 140.662 18.8408C140.62 18.9048 140.575 18.9676 140.529 19.029C140.428 19.1624 140.319 19.2893 140.202 19.409C140.181 19.4306 140.159 19.452 140.138 19.473C140.209 19.4038 140.096 19.5109 140.081 19.5237C140.02 19.5786 139.957 19.6319 139.893 19.6834C139.753 19.7949 139.608 19.8988 139.458 19.9945C139.389 20.0383 139.32 20.079 139.25 20.1205C139.23 20.1326 139.144 20.1801 139.228 20.1344C139.189 20.1554 139.151 20.1755 139.112 20.1955C138.959 20.2737 138.803 20.3453 138.645 20.4103C138.364 20.5239 138.076 20.6189 137.782 20.6946C137.756 20.7015 137.67 20.7205 137.773 20.6972C137.737 20.7054 137.701 20.7135 137.665 20.7213C137.595 20.7362 137.525 20.7497 137.454 20.7621C137.324 20.7848 137.193 20.8026 137.061 20.8155C136.453 20.8758 136.553 21.8183 137.16 21.7579L137.162 21.7575Z" fill="#32B768"/>
<path d="M98.0005 -0.000594787L96.4972 0.965973L98.7864 4.52627L100.29 3.55971L98.0005 -0.000594787Z" fill="#32B768"/>
<path d="M127.702 31.1317L125.117 35.0351L126.607 36.022L129.192 32.1186L127.702 31.1317Z" fill="#32B768"/>
<path d="M44.0065 11.4383L41.7408 14.9068L43.237 15.8842L45.5027 12.4157L44.0065 11.4383Z" fill="#32B768"/>
<path d="M186.085 47.0954L184.35 47.5237L185.459 52.0164L187.194 51.5881L186.085 47.0954Z" fill="#32B768"/>
<path d="M189.662 11.4207L188.191 12.4349L190.918 16.3907L192.389 15.3765L189.662 11.4207Z" fill="#32B768"/>
<path d="M58.8766 29.2199L55.5353 33.1759L56.9007 34.3291L60.242 30.3731L58.8766 29.2199Z" fill="#32B768"/>
<path d="M86.3076 57.8331L83.0787 61.1479L84.3589 62.395L87.5878 59.0801L86.3076 57.8331Z" fill="#32B768"/>
<path d="M155.882 53.6044L154.378 54.5709L156.668 58.1312L158.171 57.1647L155.882 53.6044Z" fill="#32B768"/>
<path d="M196.947 29.2414C197.316 26.8538 196.585 25.2359 195.421 24.2372C194.272 23.2521 190.409 21.9819 188.485 24.6793C187.23 26.4394 187.52 27.175 186.803 30.1806C186.086 33.1862 184.972 33.3518 183.358 36.8873C182.091 39.6606 186.626 41.8835 190.764 42.3446C194.903 42.8057 197.645 42.2702 198.262 39.685C199.146 35.975 196.223 33.9201 196.947 29.2414Z" fill="#0F1011"/>
<path d="M193.54 35.4984C193.54 35.4984 192.399 34.6493 193.196 31.3105L190.703 30.4407C190.703 30.4407 190.526 33.5167 189.08 34.28L193.54 35.4984Z" fill="#E98862"/>
<g opacity="0.15">
<path d="M189.703 33.7268L192.085 32.4236L190.414 32.1491C190.277 32.7147 190.036 33.2497 189.703 33.7268Z" fill="black"/>
</g>
<path d="M194.853 30.2227C194.517 31.2214 193.808 32.1074 192.853 32.2993C191.806 32.5393 190.717 32.5197 189.68 32.2421C186.906 31.5805 188.442 25.2793 189.966 24.2437C191.49 23.2081 195.283 24.5945 195.441 26.7424C195.522 27.8532 195.172 29.2722 194.853 30.2227Z" fill="#E98862"/>
<path d="M190.992 28.8183C191.122 28.8183 191.227 28.7129 191.227 28.5829C191.227 28.4528 191.122 28.3474 190.992 28.3474C190.862 28.3474 190.757 28.4528 190.757 28.5829C190.757 28.7129 190.862 28.8183 190.992 28.8183Z" fill="#0F1011"/>
<path d="M189.179 28.3858C189.309 28.3858 189.415 28.2804 189.415 28.1504C189.415 28.0203 189.309 27.9149 189.179 27.9149C189.049 27.9149 188.944 28.0203 188.944 28.1504C188.944 28.2804 189.049 28.3858 189.179 28.3858Z" fill="#0F1011"/>
<path d="M189.487 27.6808C189.481 27.6809 189.476 27.6805 189.471 27.6797L188.853 27.5928C188.838 27.5912 188.824 27.5867 188.811 27.5795C188.798 27.5723 188.787 27.5626 188.778 27.5508C188.768 27.5391 188.762 27.5257 188.758 27.5114C188.754 27.497 188.753 27.4821 188.755 27.4674C188.757 27.4526 188.762 27.4385 188.77 27.4258C188.778 27.413 188.788 27.402 188.8 27.3932C188.812 27.3845 188.825 27.3783 188.84 27.3749C188.854 27.3716 188.869 27.3712 188.884 27.3737L189.501 27.4607C189.529 27.4647 189.554 27.4789 189.572 27.5007C189.589 27.5224 189.598 27.55 189.596 27.5778C189.594 27.6057 189.582 27.6318 189.561 27.6509C189.541 27.67 189.514 27.6807 189.486 27.6808H189.487Z" fill="#0F1011"/>
<path d="M191.576 28.2396C191.561 28.2396 191.547 28.2368 191.534 28.2313L190.949 27.9918C190.935 27.9865 190.922 27.9786 190.912 27.9684C190.901 27.9582 190.893 27.946 190.887 27.9324C190.881 27.9189 190.878 27.9043 190.878 27.8895C190.877 27.8747 190.88 27.8601 190.886 27.8464C190.891 27.8328 190.9 27.8204 190.91 27.8099C190.921 27.7995 190.933 27.7913 190.947 27.7858C190.96 27.7803 190.975 27.7775 190.99 27.7777C191.005 27.778 191.019 27.7811 191.033 27.7871L191.618 28.0267C191.641 28.0364 191.661 28.054 191.673 28.0766C191.685 28.0991 191.689 28.1253 191.684 28.1504C191.68 28.1756 191.666 28.1983 191.646 28.2145C191.626 28.2308 191.601 28.2396 191.576 28.2396Z" fill="#0F1011"/>
<path d="M190.603 30.3987C190.603 30.3987 189.73 30.3574 189.16 30.0545C189.16 30.0545 189.078 30.6211 189.749 30.7811C190.421 30.9411 190.603 30.3987 190.603 30.3987Z" fill="white"/>
<path d="M193.371 27.2745C192.831 29.6528 192.723 32.1088 193.051 34.5255C193.051 34.5255 195.53 31.452 196.268 28.6878C196.959 26.0967 195.256 24.2427 193.989 23.7487C189.175 21.8682 188.305 25.4522 188.305 25.4522C188.448 26.7383 193.776 28.2916 193.776 28.2916" fill="#0F1011"/>
<path d="M192.013 29.7662C191.981 29.8942 191.974 30.0274 191.994 30.158C192.014 30.2886 192.059 30.4139 192.128 30.5268C192.196 30.6397 192.286 30.7379 192.393 30.8157C192.5 30.8935 192.621 30.9493 192.749 30.9799C192.878 31.0105 193.011 31.0154 193.141 30.9942C193.272 30.9729 193.397 30.926 193.509 30.8562C193.621 30.7864 193.718 30.695 193.794 30.5874C193.871 30.4797 193.925 30.358 193.954 30.2292C193.987 30.1016 193.994 29.9688 193.974 29.8386C193.955 29.7084 193.909 29.5834 193.84 29.4713C193.771 29.3591 193.68 29.2619 193.573 29.1856C193.465 29.1092 193.344 29.0553 193.215 29.0269C192.516 28.8959 192.14 29.23 192.013 29.7662Z" fill="#E98862"/>
<g opacity="0.15">
<path d="M189.773 29.7163C189.761 29.7163 189.749 29.7135 189.738 29.7082L189.204 29.4501C189.194 29.4451 189.185 29.4379 189.177 29.4291C189.17 29.4203 189.164 29.41 189.161 29.3989C189.158 29.3878 189.158 29.3762 189.159 29.3649C189.161 29.3535 189.165 29.3426 189.171 29.333L189.666 28.5694C189.677 28.5513 189.696 28.5386 189.717 28.5341C189.738 28.5295 189.76 28.5336 189.778 28.5453C189.796 28.557 189.809 28.5754 189.813 28.5964C189.818 28.6175 189.814 28.6395 189.802 28.6576L189.358 29.3441L189.809 29.5621C189.825 29.5701 189.839 29.5835 189.847 29.6001C189.855 29.6167 189.857 29.6355 189.853 29.6534C189.849 29.6713 189.838 29.6873 189.824 29.6988C189.81 29.7102 189.792 29.7164 189.773 29.7164L189.773 29.7163Z" fill="black"/>
</g>
<path d="M213.292 71.8507L199.498 74.3646C199.089 74.4392 198.668 74.3959 198.283 74.2399C197.898 74.0839 197.565 73.8215 197.324 73.4835L197.22 73.3373L191.121 64.7769L196.564 61.6349L200.365 69.9645L212.788 68.4766L213.292 71.8507Z" fill="#E98862"/>
<path d="M215.849 75.6179C215.87 75.7071 215.873 75.7998 215.857 75.8902C215.842 75.9805 215.807 76.0667 215.757 76.1432C215.706 76.2197 215.64 76.2849 215.563 76.3348C215.486 76.3847 215.399 76.4182 215.309 76.4332C215.183 76.4539 215.055 76.4383 214.938 76.3883C214.821 76.3384 214.721 76.256 214.649 76.151L212.407 72.6135C212.364 72.5449 212.336 72.4678 212.325 72.3874C212.315 72.3071 212.322 72.2254 212.346 72.148C212.583 71.5272 212.614 70.8468 212.436 70.2066C212.277 69.7131 211.982 69.2743 211.585 68.9405C211.547 68.9119 211.517 68.8731 211.5 68.8285C211.483 68.784 211.479 68.7355 211.489 68.6888C211.499 68.6421 211.521 68.5991 211.554 68.5648C211.588 68.5305 211.63 68.5063 211.676 68.4951L213.562 68.0303C213.617 68.0166 213.675 68.014 213.732 68.0227C213.788 68.0313 213.843 68.0511 213.892 68.0808C213.94 68.1106 213.983 68.1497 214.017 68.196C214.051 68.2422 214.075 68.2947 214.088 68.3504L215.849 75.6179Z" fill="#C1D8ED"/>
<path d="M183.335 75.7736L188.334 95.049L185.06 96.0104L178.845 77.1107L183.335 75.7736Z" fill="#E98862"/>
<path d="M181.516 98.816C181.429 98.8456 181.337 98.8569 181.246 98.8493C181.154 98.8417 181.065 98.8153 180.984 98.7716C180.903 98.728 180.832 98.6682 180.776 98.5959C180.719 98.5236 180.678 98.4404 180.655 98.3514C180.623 98.2284 180.627 98.0988 180.666 97.9779C180.706 97.857 180.779 97.7499 180.877 97.6691L184.199 95.1182C184.264 95.0691 184.338 95.0345 184.417 95.0167C184.496 94.999 184.578 94.9985 184.657 95.0154C185.297 95.196 185.977 95.1666 186.599 94.9316C187.076 94.7285 187.487 94.3954 187.784 93.9702C187.809 93.9296 187.845 93.897 187.887 93.8761C187.93 93.8553 187.978 93.847 188.026 93.8523C188.073 93.8577 188.118 93.8764 188.155 93.9062C188.192 93.9361 188.22 93.9759 188.235 94.0211L188.867 95.857C188.886 95.9112 188.894 95.9685 188.89 96.0257C188.887 96.0828 188.872 96.1387 188.847 96.1902C188.821 96.2416 188.786 96.2876 188.743 96.3254C188.7 96.3632 188.65 96.3921 188.596 96.4105L181.516 98.816Z" fill="#C1D8ED"/>
<path d="M182.005 50.9565C182.005 50.9565 177.713 64.7839 176.539 68.731C173.885 77.6596 178.845 84.326 178.845 84.326C178.845 84.326 185.555 85.2831 188.892 80.8374C195.063 72.6148 202.96 78.3376 203.299 69.224C198.807 68.3763 193.768 52.0888 193.768 52.0888L182.005 50.9565Z" fill="#262626"/>
<path d="M33.9731 36.8365C33.9731 36.8365 35.195 36.1094 34.7466 32.7063L37.3155 32.0978C37.3155 32.0978 37.1751 35.1757 38.534 36.0837L33.9731 36.8365Z" fill="#E98862"/>
<g opacity="0.15">
<path d="M37.9722 35.4694L35.7372 33.9279L37.4279 33.827C37.5054 34.4036 37.69 34.9607 37.9722 35.4694Z" fill="black"/>
</g>
<path d="M33.2107 31.4538C33.4413 32.4816 34.0556 33.4359 34.9862 33.7253C36.091 34.0692 36.8968 34.0566 38.1484 33.995C39.8564 33.9108 39.7122 32.1324 39.6718 30.335C39.6312 28.5304 39.3927 26.6044 38.6867 26.0096C37.2776 24.8224 33.362 25.8111 32.9839 27.9314C32.7888 29.0279 32.9912 30.4754 33.2107 31.4538Z" fill="#E98862"/>
<path d="M40.4232 26.9684C40.4232 26.9684 41.1151 26.7778 40.8891 26.0897C40.7394 25.6333 40.1517 25.7648 40.1517 25.7648C40.1517 25.7648 40.7079 25.6348 40.6837 25.1446C40.6686 24.8359 40.4057 24.3246 39.7048 24.6588C38.8825 25.0509 37.9228 25.053 37.1887 24.9664C36.7724 24.8965 36.3514 24.8581 35.9292 24.8514H35.9271C35.443 24.8667 34.964 24.9549 34.5061 25.1131C33.2239 25.5666 31.3118 26.8304 31.8608 29.4553C32.4734 32.3849 33.9146 33.4458 34.5416 33.7771C34.5787 33.7971 34.6199 33.8083 34.662 33.81C34.7041 33.8117 34.7461 33.8038 34.7847 33.7869C34.8233 33.77 34.8576 33.7446 34.8849 33.7125C34.9122 33.6804 34.9319 33.6425 34.9424 33.6017C35.0886 33.0398 35.3177 31.6328 35.0927 28.766C39.0835 28.3728 40.2315 28.2566 40.2315 28.2566C40.2315 28.2566 41.175 28.2454 41.1414 27.558C41.1077 26.8706 40.4232 26.9684 40.4232 26.9684Z" fill="#0F1011"/>
<path d="M37.2198 30.4555C37.3498 30.4555 37.4552 30.3501 37.4552 30.2201C37.4552 30.0901 37.3498 29.9847 37.2198 29.9847C37.0898 29.9847 36.9844 30.0901 36.9844 30.2201C36.9844 30.3501 37.0898 30.4555 37.2198 30.4555Z" fill="#0F1011"/>
<path d="M39.0673 30.2121C39.1973 30.2121 39.3027 30.1067 39.3027 29.9767C39.3027 29.8467 39.1973 29.7413 39.0673 29.7413C38.9372 29.7413 38.8318 29.8467 38.8318 29.9767C38.8318 30.1067 38.9372 30.2121 39.0673 30.2121Z" fill="#0F1011"/>
<path d="M38.8213 29.4784C38.7926 29.478 38.7652 29.4664 38.7449 29.4461C38.7245 29.4259 38.7129 29.3985 38.7124 29.3698C38.7118 29.3411 38.7225 29.3133 38.742 29.2923C38.7616 29.2714 38.7886 29.2588 38.8172 29.2573L39.4405 29.2344C39.4696 29.2336 39.4978 29.2444 39.5191 29.2643C39.5403 29.2843 39.5528 29.3118 39.5539 29.3409C39.555 29.37 39.5445 29.3984 39.5248 29.4199C39.5051 29.4413 39.4777 29.4541 39.4486 29.4555L38.8254 29.4784H38.8213Z" fill="#0F1011"/>
<path d="M36.6864 29.8191C36.6598 29.819 36.6342 29.8094 36.6141 29.7919C36.5941 29.7745 36.581 29.7504 36.5772 29.7242C36.5735 29.6979 36.5793 29.6711 36.5936 29.6487C36.608 29.6264 36.6299 29.6099 36.6554 29.6024L37.2624 29.4237C37.2903 29.4161 37.3201 29.4199 37.3453 29.434C37.3705 29.4482 37.3892 29.4717 37.3973 29.4995C37.4054 29.5272 37.4023 29.5571 37.3887 29.5826C37.3751 29.6081 37.352 29.6273 37.3244 29.636L36.7176 29.8139C36.7075 29.8172 36.697 29.8189 36.6864 29.8191Z" fill="#0F1011"/>
<path d="M36.0248 30.8557C36.044 30.9866 36.0369 31.1201 36.0041 31.2482C35.9712 31.3764 35.9132 31.4968 35.8334 31.6023C35.7536 31.7079 35.6536 31.7965 35.5392 31.863C35.4249 31.9296 35.2984 31.9727 35.1672 31.99C35.036 32.0072 34.9027 31.9982 34.7751 31.9634C34.6474 31.9287 34.5279 31.8689 34.4236 31.7875C34.3192 31.7062 34.2321 31.6049 34.1672 31.4895C34.1024 31.3742 34.0611 31.2471 34.0458 31.1157C34.0265 30.9854 34.0335 30.8526 34.0665 30.7251C34.0995 30.5976 34.1578 30.478 34.238 30.3735C34.3181 30.2691 34.4185 30.1818 34.5331 30.1169C34.6477 30.0519 34.7742 30.0108 34.905 29.9957C35.614 29.9384 35.9528 30.3093 36.0248 30.8557Z" fill="#E98862"/>
<g opacity="0.15">
<path d="M38.3237 31.4729C38.3047 31.4728 38.2864 31.466 38.2718 31.4537C38.2573 31.4415 38.2476 31.4245 38.2443 31.4057C38.241 31.387 38.2444 31.3677 38.2538 31.3512C38.2633 31.3347 38.2783 31.3221 38.2961 31.3155L38.7673 31.1451L38.3962 30.4165C38.3908 30.407 38.3874 30.3965 38.3862 30.3856C38.385 30.3747 38.386 30.3637 38.3892 30.3532C38.3923 30.3427 38.3976 30.3329 38.4046 30.3245C38.4116 30.3161 38.4203 30.3092 38.43 30.3042C38.4398 30.2993 38.4505 30.2963 38.4614 30.2956C38.4723 30.2948 38.4833 30.2963 38.4936 30.2999C38.504 30.3035 38.5135 30.3091 38.5216 30.3165C38.5297 30.3239 38.5362 30.3328 38.5408 30.3428L38.9538 31.1534C38.9591 31.1636 38.9622 31.1749 38.9628 31.1865C38.9634 31.198 38.9615 31.2096 38.9573 31.2203C38.953 31.2311 38.9465 31.2409 38.9382 31.2489C38.9299 31.257 38.92 31.2632 38.9091 31.2671L38.3517 31.4687C38.3427 31.4718 38.3332 31.4732 38.3237 31.4729Z" fill="black"/>
</g>
<path d="M37.4196 32.0666C37.4196 32.0666 38.2921 32.1153 38.89 31.8728C38.89 31.8728 38.9134 32.4447 38.2294 32.5348C37.5454 32.625 37.4196 32.0666 37.4196 32.0666Z" fill="white"/>
<path d="M44.0186 21.3234L45.7451 20.474C45.7451 20.474 45.7166 17.9849 43.5117 16.8952C42.7806 16.534 42.3596 17.3537 42.5112 17.5916C43.0123 18.3778 43.5835 19.0897 43.6563 19.8875C43.3655 19.6672 42.95 19.3898 42.8491 19.517C42.5842 19.8517 44.0186 21.3234 44.0186 21.3234Z" fill="#E98862"/>
<path d="M15.3837 72.3317C15.2845 72.307 14.9823 72.2315 12.1343 71.1489L13.3467 67.9598C14.5537 68.4184 16.0063 68.9588 16.2484 69.0321C16.233 69.0274 16.22 69.0243 16.2099 69.0217L15.3837 72.3317Z" fill="#E98862"/>
<path d="M9.6881 74.8762C9.66254 74.9644 9.65542 75.0568 9.6672 75.1478C9.67898 75.2388 9.70941 75.3264 9.75657 75.4051C9.80373 75.4838 9.86662 75.552 9.9413 75.6053C10.016 75.6586 10.1009 75.6959 10.1906 75.7149C10.315 75.7413 10.4444 75.7316 10.5635 75.687C10.6826 75.6424 10.7864 75.5646 10.8628 75.4629L13.2623 72.0305C13.3085 71.9639 13.3398 71.8881 13.354 71.8083C13.3682 71.7285 13.3651 71.6466 13.3447 71.5681C13.1358 70.9373 13.1348 70.2562 13.342 69.6248C13.5236 69.139 13.8381 68.7141 14.2497 68.3984C14.2891 68.3716 14.3201 68.3342 14.339 68.2904C14.3579 68.2467 14.364 68.1985 14.3565 68.1514C14.3491 68.1043 14.3284 68.0603 14.2969 68.0246C14.2654 67.9888 14.2244 67.9627 14.1787 67.9494L12.3155 67.3997C12.2605 67.3835 12.2029 67.3783 12.1459 67.3845C12.089 67.3906 12.0338 67.4079 11.9835 67.4354C11.9333 67.4629 11.8889 67.5001 11.8531 67.5447C11.8172 67.5894 11.7906 67.6407 11.7746 67.6957L9.6881 74.8762Z" fill="#C1D8ED"/>
<path d="M29.3345 83.0525L28.7535 79.6905C30.0261 79.4705 31.5516 79.1957 31.7971 79.1353C31.7808 79.139 31.7686 79.1429 31.7587 79.1459L32.7324 82.416C32.6345 82.4452 32.3362 82.5341 29.3345 83.0525Z" fill="#E98862"/>
<path d="M29.1268 87.5062C29.1497 87.5951 29.1907 87.6783 29.2472 87.7506C29.3037 87.8229 29.3744 87.8828 29.4551 87.9265C29.5358 87.9703 29.6246 87.9969 29.716 88.0047C29.8075 88.0126 29.8995 88.0015 29.9865 87.9722C30.107 87.9316 30.2134 87.8573 30.2931 87.7583C30.3728 87.6592 30.4226 87.5394 30.4365 87.413L30.7537 83.2374C30.7596 83.1566 30.7479 83.0754 30.7195 82.9995C30.6911 82.9236 30.6466 82.8547 30.5891 82.7976C30.0884 82.3609 29.741 81.7752 29.598 81.1264C29.5069 80.6159 29.5612 80.0901 29.7546 79.6089C29.7749 79.5658 29.7825 79.5177 29.7765 79.4704C29.7706 79.4231 29.7513 79.3785 29.7209 79.3417C29.6905 79.305 29.6503 79.2776 29.6049 79.2629C29.5596 79.2482 29.511 79.2466 29.4648 79.2585L27.582 79.734C27.5265 79.748 27.4743 79.7729 27.4284 79.8072C27.3824 79.8414 27.3437 79.8844 27.3145 79.9337C27.2852 79.9829 27.266 80.0375 27.2579 80.0942C27.2498 80.1509 27.2529 80.2087 27.2672 80.2642L29.1268 87.5062Z" fill="#C1D8ED"/>
<path d="M47.8013 76.8703L47.785 76.7328C47.3579 73.1825 44.979 55.8749 44.698 54.0454H32.3971C32.3971 54.0454 27.6106 69.6891 27.4254 70.1226L15.6658 67.6153L14.1899 73.4429L28.6678 77.7008C29.4362 77.9265 30.2595 77.8751 30.9939 77.5556C31.7283 77.2361 32.3271 76.6689 32.6859 75.9529C32.6859 75.9529 37.9421 62.526 38.0476 62.2787L41.2925 75.104L30.3155 78.2282L31.9612 84.0101L45.6427 80.1161C46.3297 79.9202 46.9244 79.4858 47.32 78.8909C47.7157 78.296 47.8863 77.5796 47.8013 76.8703Z" fill="#262626"/>
<path d="M21.258 24.2742L19.4175 24.8353C19.4175 24.8353 17.8618 22.6593 18.725 20.3562C19.0111 19.5926 19.8786 19.9027 19.9312 20.1799C20.1033 21.0961 20.0474 22.3473 20.5402 22.9788C20.6018 22.6191 20.715 22.1327 20.8757 22.1564C21.2981 22.2191 21.258 24.2742 21.258 24.2742Z" fill="#E98862"/>
<path d="M183.546 17.7838L181.741 17.1162C181.741 17.1162 181.513 14.6375 183.595 13.327C184.284 12.8925 184.788 13.6646 184.662 13.9169C184.244 14.7503 183.748 15.5173 183.758 16.3183C184.025 16.0692 184.41 15.7506 184.523 15.8668C184.821 16.1724 183.546 17.7838 183.546 17.7838Z" fill="#E98862"/>
<path d="M205.441 22.689L207.362 22.8074C207.362 22.8074 208.369 20.3297 206.995 18.2899C206.54 17.614 205.767 18.1168 205.781 18.3986C205.826 19.3297 206.171 20.5336 205.839 21.2625C205.695 20.9268 205.472 20.48 205.321 20.5405C204.925 20.699 205.441 22.689 205.441 22.689Z" fill="#E98862"/>
<path d="M208.491 22.3007L206.497 32.7607C206.449 33.0111 206.348 33.2484 206.2 33.4561C206.053 33.6639 205.862 33.8373 205.641 33.9644L198.075 38.3238C198.172 40.9199 195.594 43.8818 195.122 46.5871C194.537 49.9503 195.797 51.7213 195.386 53.4272C194.737 56.1098 181.67 53.177 181.267 51.5182C180.851 49.8107 182.425 49.0746 183.267 43.8675C183.668 41.3882 183.449 38.2898 184.1 36.15L178.03 28.4326C177.852 28.2053 177.732 27.9379 177.68 27.6536C177.629 27.3693 177.647 27.0768 177.735 26.8013L181.112 16.1756L184.489 17.2479L181.395 26.9801L186.649 33.6609C187.116 33.5953 187.589 33.5964 188.055 33.6642C188.156 33.6772 188.318 33.7016 188.528 33.7341C188.417 34.6228 193.868 35.5684 194.141 34.6894C194.834 34.8024 195.503 35.0291 196.122 35.3604L203.17 31.3002L205.01 21.638L208.491 22.3007Z" fill="#367CFF"/>
<path d="M128.006 114.02C115.804 108.543 114.65 86.4273 115.221 84.3262C115.432 83.5491 115.061 83.3476 114.509 83.4014C113.772 83.3157 112.406 84.0077 111.961 84.2462C111.516 84.0074 110.15 83.3154 109.413 83.4014C108.861 83.3476 108.49 83.5491 108.701 84.3262C109.272 86.4273 108.117 108.543 95.916 114.02C93.3523 115.17 94.2354 116.541 94.2354 116.541H129.687C129.687 116.541 130.57 115.17 128.006 114.02Z" fill="#32B768"/>
<g opacity="0.09">
<path d="M129.686 116.542H127.411C127.411 116.542 128.295 115.17 125.731 114.02C113.53 108.543 113.999 86.4276 114.571 84.3268C114.737 83.7159 114.542 83.4608 114.181 83.4056C114.289 83.3924 114.399 83.3913 114.508 83.4023C115.06 83.3487 115.432 83.5502 115.221 84.3268C114.649 86.4276 115.804 108.543 128.006 114.02C130.57 115.17 129.686 116.542 129.686 116.542Z" fill="black"/>
</g>
<path d="M160.72 57.0359C157.167 62.5616 152.868 64.1051 148.07 65.4666C143.353 66.8054 139.28 67.9606 136.702 72.3002C136.071 73.3304 135.604 74.4524 135.317 75.626V75.6293C135.251 75.9098 135.199 76.1935 135.162 76.4794C135.119 76.8533 134.987 77.2114 134.776 77.5231C134.596 77.7863 134.352 77.9993 134.067 78.1418C133.782 78.2844 133.465 78.3518 133.147 78.3377C132.188 78.3377 131.628 77.9499 131.302 77.4677C131.012 77.0236 130.894 76.4887 130.971 75.9638C130.987 75.8516 131.003 75.739 131.022 75.626C131.351 73.685 132.047 71.8242 133.07 70.1426C136.507 64.3569 142.037 62.7875 146.916 61.4016C151.391 60.1326 154.478 58.9336 157.167 54.7515C158.504 52.6686 159.929 47.8871 158.224 44.0868C156.897 41.1298 154.725 39.3962 151.769 38.9316C143.701 37.6643 139.911 45.5247 139.753 45.8594C139.511 46.3565 139.083 46.7388 138.562 46.9242C138.042 47.1096 137.469 47.0833 136.967 46.8511C136.465 46.6188 136.074 46.199 135.879 45.6819C135.683 45.1647 135.698 44.5915 135.92 44.0852C136.911 42.1102 138.235 40.3215 139.836 38.7983C143.389 35.4189 147.743 34.0233 152.424 34.7593C156.756 35.4384 160.184 38.1371 162.078 42.3581C164.237 47.1706 163.006 53.481 160.72 57.0359Z" fill="#32B768"/>
<path d="M63.2096 57.0359C66.7629 62.5616 71.3868 64.1051 76.1847 65.4666C80.9012 66.8054 84.9744 67.9606 87.5529 72.3002C88.1838 73.3304 88.6508 74.4524 88.9371 75.626V75.6293C89.0036 75.9098 89.0555 76.1935 89.0925 76.4794C89.1354 76.8533 89.268 77.2114 89.479 77.5231C89.6587 77.7863 89.9026 77.9993 90.1876 78.1418C90.4727 78.2844 90.7894 78.3518 91.1078 78.3377C92.0664 78.3377 92.6267 77.9499 92.9523 77.4677C93.2426 77.0236 93.3602 76.4887 93.283 75.9638C93.2679 75.8516 93.2512 75.739 93.2329 75.626C92.9033 73.685 92.208 71.8242 91.1841 70.1426C87.7478 64.3569 82.2173 62.7875 77.3382 61.4016C72.8637 60.1326 69.4518 58.9336 66.7629 54.7515C65.4257 52.6686 64.3258 47.8871 66.0301 44.0868C67.3575 41.1298 69.5298 39.3962 72.4851 38.9316C80.5535 37.6643 84.344 45.5247 84.5016 45.8594C84.7438 46.3565 85.1712 46.7388 85.6922 46.9242C86.2131 47.1096 86.7859 47.0833 87.2877 46.8511C87.7895 46.6188 88.1802 46.199 88.3759 45.6819C88.5716 45.1647 88.5567 44.5915 88.3344 44.0852C87.344 42.1102 86.0192 40.3215 84.4188 38.7983C80.8655 35.4189 76.5112 34.0233 71.8304 34.7593C67.4989 35.4384 64.0707 38.1371 62.1763 42.3581C60.0175 47.1706 60.9236 53.481 63.2096 57.0359Z" fill="#32B768"/>
<path d="M138.992 32.2123C138.909 31.4827 138.56 30.8093 138.012 30.3205C137.464 29.8316 136.755 29.5615 136.021 29.5618H88.1903C87.4559 29.5615 86.7472 29.8316 86.1992 30.3205C85.6513 30.8093 85.3024 31.4827 85.2191 32.2123C84.4497 39.013 83.0745 57.2494 88.922 67.3113C96.2054 79.8442 107.259 84.3261 109.64 84.3261H114.57C116.951 84.3261 128.005 79.8442 135.288 67.3113C141.136 57.2497 139.762 39.013 138.992 32.2123Z" fill="#32B768"/>
<g opacity="0.09">
<path d="M138.992 32.2123C138.909 31.4827 138.56 30.8093 138.012 30.3205C137.464 29.8316 136.755 29.5615 136.021 29.5618H126.44C126.44 29.5618 128.069 54.5714 125.02 67.104C121.97 79.6367 114.486 84.3261 114.571 84.3261C116.952 84.3261 128.006 79.8442 135.289 67.3113C141.136 57.2497 139.762 39.013 138.992 32.2123Z" fill="black"/>
</g>
<path d="M129.687 116.541H94.2508V125.009H129.687V116.541Z" fill="#0F1011"/>
<path d="M131.846 125.009H92.0919V127.045H131.846V125.009Z" fill="#0F1011"/>
<path d="M133.889 127.045H90.049V129.082H133.889V127.045Z" fill="#0F1011"/>
<path d="M119.508 61.5523L112.078 57.6447L104.642 61.5523L106.065 53.2795L100.051 47.4187L108.36 46.2141L112.078 38.6854L115.787 46.2141L124.099 47.4187L118.085 53.2795L119.508 61.5523Z" fill="white"/>
<path d="M50.215 28.7513L46.2796 19.4873L43.019 20.8724L46.5234 29.1219L41.0806 35.4337C40.6173 35.3473 40.1442 35.327 39.6752 35.3732C39.5745 35.3814 39.412 35.3992 39.2008 35.422C39.0836 35.4351 38.9481 35.4509 38.803 35.4678L38.6027 34.4054L33.2539 35.1266L33.4016 36.1463C32.2557 36.3174 31.3046 36.7281 30.6459 37.2781L23.0198 33.1591L21.7796 23.5269L18.266 23.9794L19.6222 34.5123C19.6581 34.791 19.7599 35.0572 19.919 35.2889C20.0781 35.5205 20.2901 35.711 20.5374 35.8446L29.5081 40.689C29.8836 43.0191 31.7314 45.6222 32.0305 47.9647C32.4627 51.3507 31.1255 53.0631 31.4586 54.7853C31.985 57.4936 45.1713 55.1558 45.649 53.518C46.1413 51.8283 44.6027 51.0239 43.9966 45.7827C43.7079 43.2888 44.0678 40.2027 43.5136 38.0362L49.9259 30.6006C50.142 30.3501 50.2836 30.0441 50.3347 29.7173C50.3858 29.3904 50.3443 29.0558 50.215 28.7513Z" fill="#367CFF"/>
<path d="M194.141 34.6892C193.868 35.5682 192.076 36.8258 190.13 36.353C188.671 36.0004 188.417 34.6226 188.528 33.7339C189.66 33.9126 192.196 34.3497 194.136 34.6876C194.137 34.6875 194.138 34.6876 194.139 34.6879C194.14 34.6882 194.14 34.6886 194.141 34.6892Z" fill="#E98862"/>
</g>
<defs>
<clipPath id="clip0_95_2188">
<rect width="227.543" height="129.082" fill="white"/>
</clipPath>
</defs>
</svg>
