<svg width="159" height="104" viewBox="0 0 159 104" fill="none" xmlns="http://www.w3.org/2000/svg">
<path d="M118.249 98.2336L102.886 103.984L76.3559 102.012L70.1253 100.404L68.5181 99.9931L75.2286 96.5807L111.409 97.9746L118.12 98.226L118.249 98.2336Z" fill="#E06738"/>
<path d="M158.421 90.48L135.913 89.1851L118.775 92.7803L111.402 97.9826L111.249 98.0969L102.878 103.992L76.5389 98.691L70.1255 100.42L56.811 104L39.5282 99.8564L9.57837 102.157L9.70786 87.4713L0.278076 74.5986H15.0169C19.4804 72.1917 25.9853 71.529 25.9853 71.529L35.0037 76.0839L117.251 76.5333L132.044 71.8641L158.421 90.48Z" fill="#FDF0B9"/>
<path d="M119.719 58.2064H30.7454C29.9532 63.066 30.7454 76.8907 30.7454 76.8907C30.7454 84.66 50.6637 90.9516 75.236 90.9516C99.8082 90.9516 119.727 84.6524 119.727 76.8907C120.336 65.8766 119.719 58.2064 119.719 58.2064Z" fill="#EDB82C"/>
<path d="M118.615 55.9443C122.835 55.7234 126.285 60.1717 124.861 62.8757C123.436 65.5797 118.181 67.6135 116.444 68.1238C112.498 69.2892 115.355 75.3675 107.898 73.5699C104.044 72.6407 102.916 75.2457 100.776 77.3403C98.6431 79.435 92.9456 77.9725 87.6061 75.6646C82.2667 73.3566 77.6356 79.8539 72.4789 79.2293C67.3222 78.6047 62.6911 76.0835 59.3092 77.3403C55.9273 78.5971 53.9697 77.3403 49.8718 73.3566C45.7739 69.373 41.6836 74.8267 37.9437 73.3566C34.2038 71.8866 35.6281 68.3295 31.5378 66.4405C27.4399 64.5515 23.3496 63.8583 23.3496 61.5123C23.3496 56.2109 31.4693 54.8856 31.4693 54.8856L118.615 55.9443Z" fill="#E06738"/>
<path d="M119.719 49.8887C119.719 66.189 99.8008 69.7385 75.2286 69.7385C50.6563 69.7385 30.738 66.189 30.738 49.8887C30.738 33.5885 50.6563 20.3731 75.2286 20.3731C99.8008 20.3731 119.719 33.5885 119.719 49.8887Z" fill="#EDB82C"/>
<path d="M53.0864 29.6514C53.8478 29.6514 54.4651 29.3411 54.4651 28.9583C54.4651 28.5755 53.8478 28.2652 53.0864 28.2652C52.325 28.2652 51.7078 28.5755 51.7078 28.9583C51.7078 29.3411 52.325 29.6514 53.0864 29.6514Z" fill="white"/>
<path d="M61.8306 34.9909C62.592 34.9909 63.2092 34.6806 63.2092 34.2978C63.2092 33.915 62.592 33.6047 61.8306 33.6047C61.0692 33.6047 60.4519 33.915 60.4519 34.2978C60.4519 34.6806 61.0692 34.9909 61.8306 34.9909Z" fill="white"/>
<path d="M67.5737 29.6514C68.3352 29.6514 68.9524 29.3411 68.9524 28.9583C68.9524 28.5755 68.3352 28.2652 67.5737 28.2652C66.8123 28.2652 66.1951 28.5755 66.1951 28.9583C66.1951 29.3411 66.8123 29.6514 67.5737 29.6514Z" fill="white"/>
<path d="M77.2473 24.6929C78.0088 24.6929 78.626 24.3826 78.626 23.9997C78.626 23.6169 78.0088 23.3066 77.2473 23.3066C76.4859 23.3066 75.8687 23.6169 75.8687 23.9997C75.8687 24.3826 76.4859 24.6929 77.2473 24.6929Z" fill="white"/>
<path d="M84.7727 31.7005C85.5341 31.7005 86.1514 31.3902 86.1514 31.0074C86.1514 30.6246 85.5341 30.3142 84.7727 30.3142C84.0113 30.3142 83.394 30.6246 83.394 31.0074C83.394 31.3902 84.0113 31.7005 84.7727 31.7005Z" fill="white"/>
<path d="M99.6411 31.7005C100.403 31.7005 101.02 31.3902 101.02 31.0074C101.02 30.6246 100.403 30.3142 99.6411 30.3142C98.8797 30.3142 98.2625 30.6246 98.2625 31.0074C98.2625 31.3902 98.8797 31.7005 99.6411 31.7005Z" fill="white"/>
<path d="M46.6729 41.3356C47.4343 41.3356 48.0515 41.0253 48.0515 40.6424C48.0515 40.2596 47.4343 39.9493 46.6729 39.9493C45.9114 39.9493 45.2942 40.2596 45.2942 40.6424C45.2942 41.0253 45.9114 41.3356 46.6729 41.3356Z" fill="white"/>
<path d="M63.0188 47.8332C63.7802 47.8332 64.3975 47.5229 64.3975 47.1401C64.3975 46.7573 63.7802 46.4469 63.0188 46.4469C62.2574 46.4469 61.6401 46.7573 61.6401 47.1401C61.6401 47.5229 62.2574 47.8332 63.0188 47.8332Z" fill="white"/>
<path d="M75.8608 38.655C76.6223 38.655 77.2395 38.3447 77.2395 37.9618C77.2395 37.579 76.6223 37.2687 75.8608 37.2687C75.0994 37.2687 74.4822 37.579 74.4822 37.9618C74.4822 38.3447 75.0994 38.655 75.8608 38.655Z" fill="white"/>
<path d="M84.7727 45.7532C85.5341 45.7532 86.1514 45.4428 86.1514 45.06C86.1514 44.6772 85.5341 44.3669 84.7727 44.3669C84.0113 44.3669 83.394 44.6772 83.394 45.06C83.394 45.4428 84.0113 45.7532 84.7727 45.7532Z" fill="white"/>
<path d="M98.5061 42.9657C99.2675 42.9657 99.8848 42.6554 99.8848 42.2726C99.8848 41.8898 99.2675 41.5794 98.5061 41.5794C97.7447 41.5794 97.1274 41.8898 97.1274 42.2726C97.1274 42.6554 97.7447 42.9657 98.5061 42.9657Z" fill="white"/>
<path d="M25.7949 88.5606L39.5207 81.5226L55.9352 88.713C55.9352 88.713 62.4629 87.9817 65.4792 87.6999C68.4955 87.4181 72.761 86.9839 74.4824 87.9132C76.2115 88.8424 79.0755 90.9295 81.2387 90.8228C83.4019 90.7162 91.2778 86.7859 94.4464 87.9132C97.6151 89.0405 107.807 88.4159 111.249 87.9132L94.157 93.8696H39.5816L25.7949 88.5606Z" fill="#FDF0B9"/>
<path d="M158.421 90.4806L137.543 98.6383L118.249 98.2346L118.12 98.227L111.409 97.9757L118.782 92.7809L135.921 89.1857L158.421 90.4806Z" fill="#E06738"/>
<path d="M111.813 84.5471C111.653 84.5471 111.501 84.4481 111.448 84.2805C111.387 84.0825 111.493 83.8692 111.691 83.8007C111.783 83.7702 120.702 80.9062 127.626 81.1728C127.839 81.1804 127.999 81.3556 127.992 81.5689C127.984 81.7822 127.793 81.9269 127.595 81.9345C120.801 81.6679 112.011 84.4938 111.92 84.5243C111.889 84.5471 111.851 84.5471 111.813 84.5471Z" fill="black"/>
<path d="M36.116 83.115C36.0551 83.115 35.9865 83.0998 35.9256 83.0693C29.3369 79.3522 22.5426 79.1694 22.4741 79.1694C22.2608 79.1618 22.0932 78.9942 22.1008 78.781C22.1085 78.5677 22.2913 78.4306 22.4893 78.4077C22.5578 78.4077 29.5426 78.5982 36.2988 82.4066C36.4816 82.5133 36.5502 82.7418 36.4435 82.9246C36.375 83.0465 36.2455 83.115 36.116 83.115Z" fill="black"/>
<path d="M18.9017 89.9325C18.8712 89.9325 18.8484 89.9325 18.8179 89.9249L9.63186 87.8302C9.42621 87.7845 9.29673 87.5789 9.34243 87.3732C9.38813 87.1676 9.59378 87.0381 9.79944 87.0838L18.9855 89.1784C19.1911 89.2241 19.3206 89.4298 19.2749 89.6355C19.2292 89.8106 19.0693 89.9325 18.9017 89.9325Z" fill="black"/>
<path d="M28.3237 9.02277C27.9276 7.46129 24.9418 6.78339 20.9353 7.11091C20.1507 7.17185 19.4195 6.73768 19.1072 6.02169C17.5077 2.33509 15.4892 0.0271541 13.9277 0.415618C12.3662 0.811699 11.6883 3.79754 12.0158 7.80406C12.0768 8.5886 11.6426 9.31983 10.9266 9.63212C7.24003 11.2317 4.93209 13.2502 5.32056 14.8116C5.71664 16.3731 8.70248 17.051 12.709 16.7235C13.4935 16.6626 14.2248 17.0967 14.5371 17.8127C16.1366 21.4993 18.1551 23.8073 19.7166 23.4188C21.2781 23.0227 21.956 20.0369 21.6284 16.0304C21.5675 15.2458 22.0017 14.5146 22.7177 14.2023C26.4043 12.5951 28.7198 10.5842 28.3237 9.02277Z" fill="#32B768"/>
<path d="M158.704 59.0184C158.962 57.4341 156.487 55.6136 152.686 54.3264C151.947 54.075 151.445 53.3819 151.445 52.5973C151.437 48.5832 150.515 45.6583 148.923 45.3917C147.339 45.1327 145.519 47.6082 144.231 51.4091C143.98 52.1479 143.287 52.6506 142.502 52.6506C138.488 52.6582 135.563 53.5799 135.297 55.1718C135.038 56.7562 137.513 58.5766 141.314 59.8639C142.053 60.1152 142.556 60.8084 142.556 61.5929C142.563 65.607 143.485 68.532 145.077 68.7986C146.661 69.0575 148.482 66.582 149.769 62.7812C150.02 62.0423 150.713 61.5396 151.498 61.5396C155.52 61.532 158.445 60.6103 158.704 59.0184Z" fill="#EDB82C"/>
</svg>
